<svg xmlns="http://www.w3.org/2000/svg" width="200" height="200" viewBox="0 0 200 200" fill="none">
  <!-- Head -->
  <circle cx="100" cy="70" r="40" fill="#FFD8B9"/>
  
  <!-- Hair -->
  <path d="M60 60C60 38.9543 77.9086 22 99 22C120.091 22 138 38.9543 138 60V75H60V60Z" fill="#4B5563"/>
  
  <!-- Face -->
  <circle cx="85" cy="65" r="5" fill="#4B5563"/> <!-- Left eye -->
  <circle cx="115" cy="65" r="5" fill="#4B5563"/> <!-- Right eye -->
  <path d="M90 85C93.866 88.3333 106.134 88.3333 110 85" stroke="#4B5563" stroke-width="2" stroke-linecap="round"/> <!-- Smile -->
  
  <!-- Stethoscope -->
  <circle cx="100" cy="130" r="5" fill="#3B82F6"/>
  <path d="M100 135C100 135 100 150 85 155" stroke="#3B82F6" stroke-width="3"/>
  <path d="M100 135C100 135 100 150 115 155" stroke="#3B82F6" stroke-width="3"/>
  
  <!-- Lab Coat -->
  <path d="M60 110V170H140V110L120 120H80L60 110Z" fill="white"/>
  <path d="M80 120V150" stroke="#E5E7EB" stroke-width="2"/>
  <path d="M120 120V150" stroke="#E5E7EB" stroke-width="2"/>
  
  <!-- Neck -->
  <rect x="90" y="100" width="20" height="20" fill="#FFD8B9"/>
  
  <!-- Medical Cross -->
  <rect x="95" y="130" width="10" height="25" rx="2" fill="#EF4444"/>
  <rect x="87.5" y="137.5" width="10" height="25" rx="2" transform="rotate(-90 87.5 137.5)" fill="#EF4444"/>
</svg>