<svg xmlns="http://www.w3.org/2000/svg" width="100" height="100" viewBox="0 0 100 100" fill="none">
  <path d="M50 10C27.9086 10 10 27.9086 10 50C10 72.0914 27.9086 90 50 90C72.0914 90 90 72.0914 90 50C90 27.9086 72.0914 10 50 10Z" fill="url(#paint0_linear)"/>
  <path d="M65 40C65 48.2843 58.2843 55 50 55C41.7157 55 35 48.2843 35 40C35 31.7157 41.7157 25 50 25C58.2843 25 65 31.7157 65 40Z" fill="white"/>
  <path d="M80 70C80 78.2843 73.2843 85 65 85C56.7157 85 50 78.2843 50 70C50 61.7157 56.7157 55 65 55C73.2843 55 80 61.7157 80 70Z" fill="white"/>
  <path d="M50 85C41.7157 85 35 78.2843 35 70C35 61.7157 41.7157 55 50 55C58.2843 55 65 61.7157 65 70C65 78.2843 58.2843 85 50 85Z" fill="white"/>
  <path d="M35 70C35 78.2843 28.2843 85 20 85C11.7157 85 5 78.2843 5 70C5 61.7157 11.7157 55 20 55C28.2843 55 35 61.7157 35 70Z" fill="white"/>
  <path d="M57.5 40C57.5 44.1421 54.1421 47.5 50 47.5C45.8579 47.5 42.5 44.1421 42.5 40C42.5 35.8579 45.8579 32.5 50 32.5C54.1421 32.5 57.5 35.8579 57.5 40Z" fill="url(#paint1_linear)"/>
  <path d="M72.5 70C72.5 74.1421 69.1421 77.5 65 77.5C60.8579 77.5 57.5 74.1421 57.5 70C57.5 65.8579 60.8579 62.5 65 62.5C69.1421 62.5 72.5 65.8579 72.5 70Z" fill="url(#paint2_linear)"/>
  <path d="M57.5 70C57.5 74.1421 54.1421 77.5 50 77.5C45.8579 77.5 42.5 74.1421 42.5 70C42.5 65.8579 45.8579 62.5 50 62.5C54.1421 62.5 57.5 65.8579 57.5 70Z" fill="url(#paint3_linear)"/>
  <path d="M27.5 70C27.5 74.1421 24.1421 77.5 20 77.5C15.8579 77.5 12.5 74.1421 12.5 70C12.5 65.8579 15.8579 62.5 20 62.5C24.1421 62.5 27.5 65.8579 27.5 70Z" fill="url(#paint4_linear)"/>
  <defs>
    <linearGradient id="paint0_linear" x1="10" y1="10" x2="90" y2="90" gradientUnits="userSpaceOnUse">
      <stop stop-color="#3B82F6"/>
      <stop offset="1" stop-color="#10B981"/>
    </linearGradient>
    <linearGradient id="paint1_linear" x1="42.5" y1="32.5" x2="57.5" y2="47.5" gradientUnits="userSpaceOnUse">
      <stop stop-color="#3B82F6"/>
      <stop offset="1" stop-color="#10B981"/>
    </linearGradient>
    <linearGradient id="paint2_linear" x1="57.5" y1="62.5" x2="72.5" y2="77.5" gradientUnits="userSpaceOnUse">
      <stop stop-color="#3B82F6"/>
      <stop offset="1" stop-color="#10B981"/>
    </linearGradient>
    <linearGradient id="paint3_linear" x1="42.5" y1="62.5" x2="57.5" y2="77.5" gradientUnits="userSpaceOnUse">
      <stop stop-color="#3B82F6"/>
      <stop offset="1" stop-color="#10B981"/>
    </linearGradient>
    <linearGradient id="paint4_linear" x1="12.5" y1="62.5" x2="27.5" y2="77.5" gradientUnits="userSpaceOnUse">
      <stop stop-color="#3B82F6"/>
      <stop offset="1" stop-color="#10B981"/>
    </linearGradient>
  </defs>
</svg>